<svg width="36" height="50" viewBox="0 0 36 50" fill="none" xmlns="http://www.w3.org/2000/svg">
<path d="M18.0155 28.9843L36 6.27027C35.3041 5.7373 28.3763 0 18 0C7.60825 0 0.695876 5.7373 0 6.27027L17.9846 28.9843L18 29L18.0155 28.9843Z" fill="#49CA3E" fill-opacity="0.5"/>
<path d="M22.8342 27.5156L28.9587 20.7012L28.4462 20.1875L21.6494 26.3278H14.3386L7.54171 20.1875L7.0293 20.7012L13.1538 27.5156V34.7225L7.0293 41.537L7.54171 42.0506L14.3386 35.9103H21.6494L28.4462 42.0506L28.9587 41.5369L22.8342 34.7225V27.5156Z" fill="#1E8CBC"/>
<path d="M14.791 20.317C14.8053 20.8124 14.7801 21.3082 14.7156 21.7996C14.6517 22.2985 14.5406 22.7901 14.3839 23.2679C14.2251 23.7517 14.0107 24.2154 13.7451 24.6497C13.2065 25.5232 12.4672 26.255 11.589 26.7838C11.154 27.0438 10.6914 27.2544 10.2098 27.4117C9.73481 27.5669 9.24643 27.6774 8.751 27.7419C8.26291 27.8069 7.77038 27.8321 7.27823 27.8174C5.31921 27.7656 3.41119 26.9299 2.07194 25.5366C1.39818 24.8482 0.868036 24.032 0.512503 23.1358C0.156971 22.2396 -0.016822 21.2813 0.00128206 20.317L0.019263 19.9596C0.0294427 19.8408 0.0426192 19.7223 0.0543686 19.6038C0.0690197 19.4857 0.0908537 19.3684 0.108882 19.2509C0.129527 19.1339 0.157022 19.0179 0.180949 18.9017C0.2902 18.4406 0.444777 17.9916 0.642411 17.5611C1.43472 15.8384 2.80954 14.4524 4.52339 13.6485C4.95334 13.4489 5.40219 13.293 5.86321 13.1833C6.32739 13.0741 6.80157 13.0131 7.27823 13.0015C8.2433 12.9819 9.20259 13.1553 10.1 13.5117C10.9975 13.868 11.8151 14.4001 12.5051 15.0769C13.2043 15.7566 13.7642 16.5668 14.1534 17.4619C14.5473 18.3635 14.7638 19.333 14.791 20.317ZM13.758 20.317C13.7706 19.8899 13.7418 19.4627 13.672 19.0413C13.6004 18.6182 13.4865 18.2035 13.3322 17.8033C13.0169 16.9969 12.5457 16.2609 11.9458 15.6376C10.7165 14.3717 9.04001 13.6413 7.27823 13.6042C6.39307 13.5802 5.51124 13.7224 4.67823 14.0235C3.83235 14.33 3.06357 14.8182 2.42574 15.454C1.78791 16.0898 1.29647 16.8577 0.985857 17.704C0.683704 18.5409 0.540466 19.4272 0.563543 20.317C0.597694 22.0896 1.3258 23.7777 2.59068 25.0168C3.21445 25.6217 3.95135 26.0971 4.759 26.4155C5.16011 26.5713 5.57583 26.6861 5.99987 26.7584C6.42219 26.8287 6.85032 26.8576 7.27823 26.8448C7.70347 26.8296 8.12549 26.7647 8.5357 26.6513C8.93997 26.5377 9.33093 26.3811 9.7019 26.184C10.0663 25.9902 10.414 25.7663 10.7412 25.5145C11.0651 25.2673 11.3711 24.9974 11.6568 24.7068C11.9409 24.4158 12.2046 24.1053 12.4458 23.7777C12.6908 23.4475 12.91 23.0988 13.1014 22.7347C13.296 22.3642 13.4514 21.9743 13.565 21.5714C13.6784 21.1623 13.7431 20.7413 13.758 20.317Z" fill="#4AC0FF"/>
<path d="M7.9172 20.8914L6.95703 19.928L10.9642 16.3774C11.0311 16.318 11.118 16.2865 11.2073 16.2892C11.2966 16.292 11.3815 16.3288 11.4446 16.3921C11.5078 16.4554 11.5445 16.5405 11.5472 16.63C11.55 16.7195 11.5186 16.8067 11.4594 16.8738L7.9172 20.8914Z" fill="#4AC0FF"/>
<path d="M6.95714 19.9297L7.91731 20.8928L3.83041 24.523C3.76366 24.5824 3.67682 24.614 3.58762 24.6113C3.49842 24.6086 3.4136 24.5719 3.35049 24.5087C3.28744 24.4454 3.25085 24.3604 3.2482 24.271C3.24555 24.1816 3.27703 24.0945 3.33622 24.0276L6.95714 19.9297Z" fill="#4AC0FF"/>
<path d="M7.46522 21.2926C7.96756 21.2926 8.37478 20.8843 8.37478 20.3807C8.37478 19.877 7.96756 19.4688 7.46522 19.4688C6.96289 19.4688 6.55566 19.877 6.55566 20.3807C6.55566 20.8843 6.96289 21.2926 7.46522 21.2926Z" fill="#4AC0FF"/>
<path d="M7.46462 20.9851C7.79727 20.9851 8.06693 20.7147 8.06693 20.3812C8.06693 20.0477 7.79727 19.7773 7.46462 19.7773C7.13197 19.7773 6.8623 20.0477 6.8623 20.3812C6.8623 20.7147 7.13197 20.9851 7.46462 20.9851Z" fill="#99E0FF"/>
<path d="M21.209 20.317C21.1947 20.8124 21.2199 21.3082 21.2844 21.7996C21.3483 22.2985 21.4594 22.7901 21.6161 23.2679C21.775 23.7517 21.9893 24.2154 22.2548 24.6497C22.7936 25.5232 23.5329 26.2549 24.411 26.7838C24.846 27.0438 25.3086 27.2544 25.7901 27.4117C26.2652 27.5669 26.7536 27.6774 27.249 27.7419C27.737 27.8069 28.2295 27.8321 28.7216 27.8174C30.6806 27.7656 32.5889 26.9298 33.9278 25.5366C34.6017 24.8482 35.1319 24.032 35.4875 23.1358C35.8431 22.2396 36.017 21.2813 35.999 20.317L35.981 19.9596C35.9708 19.8408 35.9576 19.7223 35.9459 19.6038C35.9312 19.4857 35.9095 19.3684 35.8915 19.2509C35.8708 19.1339 35.8433 19.0179 35.8195 18.9017C35.71 18.4406 35.5553 17.9916 35.3577 17.5611C34.5653 15.8384 33.1905 14.4524 31.4767 13.6485C31.0467 13.4489 30.5978 13.293 30.1368 13.1833C29.6725 13.0741 29.1983 13.0131 28.7216 13.0015C27.7565 12.9819 26.7973 13.1554 25.8999 13.5117C25.0025 13.8681 24.185 14.4001 23.495 15.0769C22.7957 15.7565 22.2358 16.5667 21.8468 17.4619C21.4527 18.3635 21.2361 19.333 21.209 20.317ZM22.242 20.317C22.2293 19.8899 22.258 19.4627 22.3278 19.0413C22.3994 18.6182 22.5133 18.2035 22.6676 17.8033C22.983 16.9968 23.4542 16.2608 24.0542 15.6376C25.2834 14.3717 26.9598 13.6414 28.7215 13.6042C29.6067 13.5802 30.4885 13.7224 31.3215 14.0235C32.1674 14.3299 32.9362 14.8182 33.5741 15.454C34.2119 16.0897 34.7034 16.8577 35.0141 17.704C35.3162 18.5409 35.4595 19.4272 35.4364 20.317C35.4023 22.0896 34.6741 23.7777 33.4092 25.0168C32.7855 25.6217 32.0486 26.0971 31.2409 26.4155C30.8398 26.5712 30.4241 26.6861 30.0001 26.7584C29.5777 26.8287 29.1495 26.8576 28.7216 26.8448C28.2963 26.8296 27.8743 26.7647 27.4641 26.6513C27.0598 26.5377 26.6689 26.381 26.2979 26.184C25.9335 25.9902 25.5858 25.7662 25.2586 25.5145C24.9347 25.2673 24.6287 24.9974 24.3431 24.7068C24.0589 24.4158 23.7953 24.1054 23.554 23.7777C23.309 23.4475 23.0897 23.0988 22.8983 22.7347C22.7038 22.3642 22.5484 21.9743 22.4348 21.5714C22.3216 21.1623 22.2569 20.7412 22.2422 20.317H22.242Z" fill="#4AC0FF"/>
<path d="M28.0824 20.8914L29.0425 19.928L25.0353 16.3773C24.9684 16.318 24.8815 16.2865 24.7922 16.2892C24.7029 16.292 24.618 16.3287 24.5549 16.3921C24.4917 16.4554 24.455 16.5405 24.4523 16.63C24.4496 16.7195 24.481 16.8067 24.5402 16.8738L28.0824 20.8914Z" fill="#4AC0FF"/>
<path d="M29.0421 19.9297L28.082 20.8928L32.1688 24.523C32.2356 24.5824 32.3225 24.614 32.4117 24.6113C32.5009 24.6086 32.5857 24.5719 32.6488 24.5087C32.7119 24.4454 32.7485 24.3604 32.7512 24.271C32.7538 24.1815 32.7223 24.0945 32.6631 24.0276L29.0421 19.9297Z" fill="#4AC0FF"/>
<path d="M28.5346 21.2926C29.0369 21.2926 29.4441 20.8843 29.4441 20.3807C29.4441 19.877 29.0369 19.4688 28.5346 19.4688C28.0322 19.4688 27.625 19.877 27.625 20.3807C27.625 20.8843 28.0322 21.2926 28.5346 21.2926Z" fill="#4AC0FF"/>
<path d="M28.5349 20.9851C28.8676 20.9851 29.1372 20.7147 29.1372 20.3812C29.1372 20.0477 28.8676 19.7773 28.5349 19.7773C28.2023 19.7773 27.9326 20.0477 27.9326 20.3812C27.9326 20.7147 28.2023 20.9851 28.5349 20.9851Z" fill="#99E0FF"/>
<path d="M14.791 41.6842C14.8053 41.1888 14.7801 40.693 14.7156 40.2016C14.6517 39.7027 14.5406 39.211 14.3839 38.7332C14.225 38.2494 14.0107 37.7857 13.7451 37.3515C13.2064 36.4779 12.4672 35.7462 11.589 35.2174C11.154 34.9574 10.6914 34.7468 10.2098 34.5894C9.73481 34.4342 9.24643 34.3237 8.751 34.2592C8.2629 34.1943 7.77037 34.169 7.27823 34.1838C5.3194 34.2356 3.41138 35.0713 2.07213 36.4645C1.39832 37.1529 0.868145 37.9691 0.512579 38.8654C0.157014 39.7616 -0.016806 40.7199 0.00127936 41.6842L0.0192603 42.0416C0.02944 42.1604 0.0426165 42.2789 0.0543659 42.3974C0.069017 42.5156 0.090851 42.6329 0.108879 42.7503C0.129524 42.8673 0.157019 42.9832 0.180946 43.0996C0.290212 43.5606 0.444788 44.0096 0.642409 44.4401C1.03597 45.2938 1.57526 46.072 2.23596 46.7396C2.89767 47.4082 3.67202 47.9542 4.52329 48.3526C4.95324 48.5523 5.4021 48.7081 5.86311 48.8179C6.32733 48.9271 6.80154 48.988 7.27823 48.9997C8.24326 49.0192 9.20252 48.8458 10.0999 48.4894C10.9973 48.1331 11.8149 47.601 12.5049 46.9242C13.2041 46.2445 13.764 45.4344 14.1531 44.5393C14.5471 43.6376 14.7637 42.6682 14.791 41.6842ZM13.758 41.6842C13.7706 42.1112 13.7418 42.5385 13.672 42.9599C13.6004 43.3829 13.4865 43.7977 13.3322 44.198C13.0168 45.0044 12.5457 45.7403 11.9457 46.3636C10.7165 47.6295 9.04 48.3598 7.27823 48.3969C6.39307 48.4209 5.51124 48.2788 4.67822 47.9777C3.83236 47.6712 3.06358 47.183 2.42575 46.5472C1.78793 45.9114 1.29648 45.1435 0.985854 44.2972C0.683707 43.4603 0.54047 42.574 0.56354 41.6842C0.597692 39.9116 1.3258 38.2235 2.59067 36.9844C3.21443 36.3794 3.95133 35.9041 4.75899 35.5856C5.16011 35.43 5.57583 35.3151 5.99987 35.2428C6.42218 35.1725 6.85032 35.1436 7.27823 35.1564C7.70346 35.1716 8.12548 35.2365 8.5357 35.3498C8.93997 35.4634 9.33093 35.6201 9.70189 35.8172C10.0663 36.0109 10.414 36.2348 10.7412 36.4866C11.0651 36.7337 11.3711 37.0036 11.6568 37.2943C11.9411 37.5853 12.2048 37.8958 12.4461 38.2235C12.6911 38.5537 12.9103 38.9023 13.1017 39.2664C13.2962 39.6369 13.4516 40.0268 13.5652 40.4297C13.6785 40.8388 13.7432 41.2599 13.758 41.6842Z" fill="#4AC0FF"/>
<path d="M7.91818 41.1055L6.95801 42.0685L10.9651 45.6195C11.032 45.6788 11.119 45.7103 11.2083 45.7076C11.2975 45.7049 11.3824 45.6681 11.4456 45.6048C11.5087 45.5415 11.5454 45.4564 11.5482 45.3669C11.551 45.2774 11.5196 45.1902 11.4604 45.1231L7.91818 41.1055Z" fill="#4AC0FF"/>
<path d="M6.95712 42.0685L7.91734 41.1051L3.83039 37.4751C3.76362 37.4158 3.67679 37.3842 3.58761 37.3869C3.49842 37.3895 3.41361 37.4262 3.35047 37.4894C3.28743 37.5527 3.25085 37.6377 3.2482 37.7272C3.24555 37.8166 3.27702 37.9036 3.3362 37.9706L6.95712 42.0685Z" fill="#4AC0FF"/>
<path d="M7.46522 42.523C7.96756 42.523 8.37478 42.1148 8.37478 41.6111C8.37478 41.1075 7.96756 40.6992 7.46522 40.6992C6.96289 40.6992 6.55566 41.1075 6.55566 41.6111C6.55566 42.1148 6.96289 42.523 7.46522 42.523Z" fill="#4AC0FF"/>
<path d="M7.46462 42.2195C7.79727 42.2195 8.06693 41.9491 8.06693 41.6156C8.06693 41.2821 7.79727 41.0117 7.46462 41.0117C7.13197 41.0117 6.8623 41.2821 6.8623 41.6156C6.8623 41.9491 7.13197 42.2195 7.46462 42.2195Z" fill="#99E0FF"/>
<path d="M21.209 41.6842C21.1947 41.1888 21.2199 40.693 21.2844 40.2015C21.3484 39.7027 21.4594 39.211 21.6161 38.7332C21.775 38.2494 21.9893 37.7857 22.2548 37.3515C22.7936 36.478 23.5329 35.7463 24.411 35.2174C24.846 34.9574 25.3086 34.7468 25.7901 34.5894C26.2652 34.4342 26.7536 34.3237 27.249 34.2592C27.737 34.1943 28.2295 34.169 28.7216 34.1838C30.6805 34.2355 32.5889 35.0713 33.9278 36.4645C34.6016 37.1529 35.1319 37.9691 35.4875 38.8653C35.8431 39.7615 36.017 40.7199 35.999 41.6842L35.981 42.0416C35.9708 42.1604 35.9576 42.2789 35.9459 42.3974C35.9312 42.5156 35.9095 42.6329 35.8915 42.7503C35.8708 42.8673 35.8433 42.9832 35.8195 43.0996C35.71 43.5606 35.5553 44.0096 35.3577 44.4401C34.5654 46.1628 33.1906 47.5487 31.4769 48.3526C31.0469 48.5523 30.598 48.7081 30.137 48.8179C29.6727 48.9271 29.1985 48.9881 28.7217 48.9997C27.7567 49.0193 26.7974 48.8458 25.9 48.4895C25.0026 48.1331 24.185 47.601 23.495 46.9242C22.7957 46.2446 22.2358 45.4344 21.8468 44.5393C21.4527 43.6377 21.2362 42.6682 21.209 41.6842ZM22.242 41.6842C22.2293 42.1112 22.258 42.5384 22.3278 42.9597C22.3994 43.3828 22.5133 43.7976 22.6676 44.1979C22.983 45.0042 23.4541 45.7402 24.0541 46.3634C25.2832 47.6293 26.9597 48.3596 28.7214 48.3968C29.6065 48.4208 30.4883 48.2786 31.3213 47.9776C32.1672 47.6711 32.936 47.1828 33.5739 46.5471C34.2118 45.9113 34.7033 45.1434 35.0139 44.2971C35.3161 43.4601 35.4593 42.5739 35.4363 41.6841C35.4022 39.9114 34.674 38.2233 33.4091 36.9843C32.7854 36.3793 32.0484 35.9039 31.2407 35.5855C30.8397 35.4298 30.424 35.315 30 35.2427C29.5776 35.1724 29.1494 35.1435 28.7214 35.1563C28.2962 35.1715 27.8742 35.2364 27.4639 35.3497C27.0597 35.4633 26.6687 35.62 26.2978 35.8171C25.9334 36.0109 25.5858 36.2348 25.2586 36.4866C24.9347 36.7337 24.6288 37.0036 24.3431 37.2943C24.0589 37.5853 23.7952 37.8958 23.554 38.2235C23.3089 38.5536 23.0897 38.9023 22.8984 39.2664C22.7038 39.6369 22.5484 40.0268 22.4348 40.4297C22.3216 40.8388 22.2569 41.2599 22.2422 41.6842H22.242Z" fill="#4AC0FF"/>
<path d="M28.0824 41.1055L29.0424 42.0685L25.0353 45.6195C24.9684 45.6788 24.8815 45.7103 24.7922 45.7076C24.7029 45.7048 24.618 45.6681 24.5549 45.6048C24.4917 45.5414 24.455 45.4564 24.4523 45.3669C24.4496 45.2773 24.481 45.1902 24.5402 45.1231L28.0824 41.1055Z" fill="#4AC0FF"/>
<path d="M29.0421 42.0685L28.082 41.1053L32.1688 37.4751C32.2356 37.4158 32.3225 37.3842 32.4117 37.3869C32.5008 37.3895 32.5857 37.4262 32.6488 37.4894C32.7119 37.5527 32.7485 37.6377 32.7512 37.7272C32.7538 37.8166 32.7223 37.9036 32.6631 37.9706L29.0421 42.0685Z" fill="#4AC0FF"/>
<path d="M28.5346 42.523C29.0369 42.523 29.4441 42.1148 29.4441 41.6111C29.4441 41.1075 29.0369 40.6992 28.5346 40.6992C28.0322 40.6992 27.625 41.1075 27.625 41.6111C27.625 42.1148 28.0322 42.523 28.5346 42.523Z" fill="#4AC0FF"/>
<path d="M28.5349 42.2195C28.8676 42.2195 29.1372 41.9491 29.1372 41.6156C29.1372 41.2821 28.8676 41.0117 28.5349 41.0117C28.2023 41.0117 27.9326 41.2821 27.9326 41.6156C27.9326 41.9491 28.2023 42.2195 28.5349 42.2195Z" fill="#99E0FF"/>
<path d="M17.2394 27.2891H17.0708C17.0452 27.2891 17.0244 27.3099 17.0244 27.3356V28.5594C17.0244 28.5851 17.0452 28.6059 17.0708 28.6059H17.2394C17.265 28.6059 17.2858 28.5851 17.2858 28.5594V27.3356C17.2858 27.3099 17.265 27.2891 17.2394 27.2891Z" fill="#4AC0FF"/>
<path d="M17.799 27.2891H17.6304C17.6047 27.2891 17.584 27.3099 17.584 27.3356V28.5594C17.584 28.5851 17.6047 28.6059 17.6304 28.6059H17.799C17.8246 28.6059 17.8454 28.5851 17.8454 28.5594V27.3356C17.8454 27.3099 17.8246 27.2891 17.799 27.2891Z" fill="#4AC0FF"/>
<path d="M18.3576 27.2891H18.189C18.1633 27.2891 18.1426 27.3099 18.1426 27.3356V28.5594C18.1426 28.5851 18.1633 28.6059 18.189 28.6059H18.3576C18.3832 28.6059 18.404 28.5851 18.404 28.5594V27.3356C18.404 27.3099 18.3832 27.2891 18.3576 27.2891Z" fill="#4AC0FF"/>
<path d="M18.9162 27.2891H18.7476C18.7219 27.2891 18.7012 27.3099 18.7012 27.3356V28.5594C18.7012 28.5851 18.7219 28.6059 18.7476 28.6059H18.9162C18.9418 28.6059 18.9626 28.5851 18.9626 28.5594V27.3356C18.9626 27.3099 18.9418 27.2891 18.9162 27.2891Z" fill="#4AC0FF"/>
<path d="M17.2394 33.4688H17.0708C17.0452 33.4688 17.0244 33.4896 17.0244 33.5152V34.7391C17.0244 34.7648 17.0452 34.7856 17.0708 34.7856H17.2394C17.265 34.7856 17.2858 34.7648 17.2858 34.7391V33.5152C17.2858 33.4896 17.265 33.4688 17.2394 33.4688Z" fill="#4AC0FF"/>
<path d="M17.799 33.4688H17.6304C17.6047 33.4688 17.584 33.4896 17.584 33.5152V34.7391C17.584 34.7648 17.6047 34.7856 17.6304 34.7856H17.799C17.8246 34.7856 17.8454 34.7648 17.8454 34.7391V33.5152C17.8454 33.4896 17.8246 33.4688 17.799 33.4688Z" fill="#4AC0FF"/>
<path d="M18.3576 33.4688H18.189C18.1633 33.4688 18.1426 33.4896 18.1426 33.5152V34.7391C18.1426 34.7648 18.1633 34.7856 18.189 34.7856H18.3576C18.3832 34.7856 18.404 34.7648 18.404 34.7391V33.5152C18.404 33.4896 18.3832 33.4688 18.3576 33.4688Z" fill="#4AC0FF"/>
<path d="M18.9162 33.4688H18.7476C18.7219 33.4688 18.7012 33.4896 18.7012 33.5152V34.7391C18.7012 34.7648 18.7219 34.7856 18.7476 34.7856H18.9162C18.9418 34.7856 18.9626 34.7648 18.9626 34.7391V33.5152C18.9626 33.4896 18.9418 33.4688 18.9162 33.4688Z" fill="#4AC0FF"/>
<path d="M21.7344 30.282V30.1129C21.7344 30.0872 21.7136 30.0664 21.688 30.0664H20.4673C20.4417 30.0664 20.4209 30.0872 20.4209 30.1129V30.282C20.4209 30.3077 20.4417 30.3285 20.4673 30.3285H21.688C21.7136 30.3285 21.7344 30.3077 21.7344 30.282Z" fill="#4AC0FF"/>
<path d="M21.7344 30.8406V30.6715C21.7344 30.6458 21.7136 30.625 21.688 30.625H20.4673C20.4417 30.625 20.4209 30.6458 20.4209 30.6715V30.8406C20.4209 30.8662 20.4417 30.8871 20.4673 30.8871H21.688C21.7136 30.8871 21.7344 30.8662 21.7344 30.8406Z" fill="#4AC0FF"/>
<path d="M21.7344 31.4031V31.234C21.7344 31.2083 21.7136 31.1875 21.688 31.1875H20.4673C20.4417 31.1875 20.4209 31.2083 20.4209 31.234V31.4031C20.4209 31.4287 20.4417 31.4496 20.4673 31.4496H21.688C21.7136 31.4496 21.7344 31.4287 21.7344 31.4031Z" fill="#4AC0FF"/>
<path d="M21.7344 31.9617V31.7926C21.7344 31.7669 21.7136 31.7461 21.688 31.7461H20.4673C20.4417 31.7461 20.4209 31.7669 20.4209 31.7926V31.9617C20.4209 31.9873 20.4417 32.0082 20.4673 32.0082H21.688C21.7136 32.0082 21.7344 31.9873 21.7344 31.9617Z" fill="#4AC0FF"/>
<path d="M15.5664 30.282V30.1129C15.5664 30.0872 15.5456 30.0664 15.52 30.0664H14.2993C14.2737 30.0664 14.2529 30.0872 14.2529 30.1129V30.282C14.2529 30.3077 14.2737 30.3285 14.2993 30.3285H15.52C15.5456 30.3285 15.5664 30.3077 15.5664 30.282Z" fill="#4AC0FF"/>
<path d="M15.5664 30.8406V30.6715C15.5664 30.6458 15.5456 30.625 15.52 30.625H14.2993C14.2737 30.625 14.2529 30.6458 14.2529 30.6715V30.8406C14.2529 30.8662 14.2737 30.8871 14.2993 30.8871H15.52C15.5456 30.8871 15.5664 30.8662 15.5664 30.8406Z" fill="#4AC0FF"/>
<path d="M15.5664 31.4031V31.234C15.5664 31.2083 15.5456 31.1875 15.52 31.1875H14.2993C14.2737 31.1875 14.2529 31.2083 14.2529 31.234V31.4031C14.2529 31.4287 14.2737 31.4496 14.2993 31.4496H15.52C15.5456 31.4496 15.5664 31.4287 15.5664 31.4031Z" fill="#4AC0FF"/>
<path d="M15.5664 31.9617V31.7926C15.5664 31.7669 15.5456 31.7461 15.52 31.7461H14.2993C14.2737 31.7461 14.2529 31.7669 14.2529 31.7926V31.9617C14.2529 31.9873 14.2737 32.0082 14.2993 32.0082H15.52C15.5456 32.0082 15.5664 31.9873 15.5664 31.9617Z" fill="#4AC0FF"/>
</svg>
